<?xml version="1.0" standalone="no"?>
<!DOCTYPE svg PUBLIC "-//W3C//DTD SVG 20010904//EN"
 "http://www.w3.org/TR/2001/REC-SVG-20010904/DTD/svg10.dtd">
<svg version="1.0" xmlns="http://www.w3.org/2000/svg"
 width="600.000000pt" height="600.000000pt" viewBox="0 0 600.000000 600.000000"
 preserveAspectRatio="xMidYMid meet">
<g transform="translate(0.000000,600.000000) scale(0.100000,-0.100000)"
fill="#000000" stroke="none">
<path d="M3183 4064 c0 -7 3 -11 7 -9 3 2 24 -5 47 -15 58 -26 83 -33 83 -23
0 5 -8 9 -19 10 -10 1 -40 12 -68 26 -35 16 -50 20 -50 11z"/>
<path d="M3260 4070 c-9 -6 -10 -10 -3 -10 6 0 15 5 18 10 8 12 4 12 -15 0z"/>
<path d="M3115 4060 c-19 -8 -19 -9 3 -9 12 -1 22 4 22 9 0 6 -1 10 -2 9 -2 0
-12 -4 -23 -9z"/>
<path d="M3098 4033 c7 -3 16 -2 19 1 4 3 -2 6 -13 5 -11 0 -14 -3 -6 -6z"/>
<path d="M3050 4019 c0 -5 5 -7 10 -4 6 3 10 8 10 11 0 2 -4 4 -10 4 -5 0 -10
-5 -10 -11z"/>
<path d="M3134 4020 c-35 -14 -91 -88 -103 -137 -7 -24 -18 -55 -26 -67 -46
-70 -67 -197 -44 -267 19 -54 131 -249 163 -281 48 -49 113 -63 152 -33 10 8
22 15 25 15 10 0 9 -79 -1 -85 -6 -3 -7 -17 -4 -31 4 -14 2 -24 -5 -24 -6 0
-11 7 -11 15 0 8 -9 15 -20 15 -11 0 -20 5 -20 10 0 6 -8 10 -17 9 -11 0 -13
-3 -5 -6 17 -7 15 -20 -3 -20 -8 0 -15 6 -15 14 0 10 -5 11 -19 3 -13 -7 -22
-7 -26 0 -9 14 -60 12 -99 -4 -71 -30 -104 -126 -72 -210 16 -42 93 -126 116
-126 5 0 10 -11 10 -25 0 -60 55 -105 130 -105 24 0 29 5 33 28 2 15 5 -2 7
-38 3 -69 5 -61 15 64 5 52 10 74 16 65 6 -9 9 4 9 39 0 28 4 52 9 52 12 0 4
-111 -26 -365 -8 -71 -16 -149 -18 -172 -2 -22 -11 -119 -19 -215 -8 -95 -18
-237 -22 -315 -4 -78 -11 -140 -15 -137 -11 7 -11 1 1 -30 7 -21 6 -26 -5 -26
-18 0 -18 -5 -5 -31 7 -13 7 -25 1 -38 -6 -10 -13 -56 -16 -101 -3 -46 -8 -87
-10 -91 -3 -4 3 -17 13 -29 13 -16 30 -23 58 -24 21 0 41 -4 44 -7 3 -4 37
-10 75 -15 66 -8 70 -10 67 -33 -2 -15 0 -21 7 -17 13 9 15 -6 2 -20 -5 -5
-19 -137 -30 -294 -12 -157 -28 -368 -35 -470 -28 -364 -28 -358 -9 -368 18
-9 84 -17 428 -47 94 -8 188 -17 210 -20 93 -11 201 -15 211 -8 6 5 18 22 27
38 13 26 16 112 22 557 6 393 5 531 -4 542 -14 17 -5 43 17 48 9 3 51 1 92 -3
77 -7 108 -1 127 22 27 35 107 274 97 291 -3 4 -7 124 -10 265 -2 142 -5 265
-6 273 -1 8 0 31 2 50 3 32 3 30 10 -15 4 -27 16 -97 28 -155 28 -139 70 -492
77 -655 3 -71 18 -231 33 -355 24 -203 27 -259 27 -573 0 -254 3 -347 11 -347
31 0 28 540 -4 825 -5 44 -9 94 -8 112 1 17 -1 30 -5 28 -6 -4 -25 217 -35
410 -3 66 -12 152 -20 190 -8 39 -19 120 -24 180 -11 127 -22 197 -44 277 -8
32 -13 67 -11 77 5 25 -18 44 -43 37 -17 -6 -18 -18 -15 -204 1 -108 5 -258 7
-332 3 -110 1 -143 -14 -180 -25 -66 -30 -80 -28 -83 1 -1 -6 -15 -15 -32 -9
-16 -21 -42 -26 -57 l-10 -27 -105 5 -106 5 -19 -32 c-14 -24 -17 -37 -10 -45
11 -14 13 -725 3 -947 -6 -121 -22 -180 -48 -171 -11 3 -156 15 -191 16 -11 0
-49 4 -85 9 -36 5 -92 11 -125 13 -33 3 -107 10 -165 15 -58 6 -131 12 -163
14 -58 3 -104 29 -82 45 6 4 10 27 10 52 1 42 8 143 20 285 3 34 7 92 9 130 3
39 10 142 16 230 6 88 13 192 15 230 7 103 14 132 33 141 9 4 20 7 24 6 10 -2
30 26 24 36 -3 5 -23 14 -45 22 -22 7 -38 17 -35 22 3 5 2 8 -3 7 -4 -1 -15 0
-23 4 -15 5 -90 16 -145 21 -67 5 -74 22 -61 151 5 39 9 81 10 95 1 14 5 31 9
38 5 6 5 17 2 22 -3 5 -1 10 5 10 7 0 8 6 1 19 -6 10 -8 21 -4 25 3 3 7 43 8
88 3 97 12 215 25 348 6 52 12 124 15 160 3 36 7 76 9 90 2 14 8 54 14 90 5
36 9 84 8 107 -1 22 2 39 5 37 12 -7 18 287 7 302 -5 7 -2 17 7 24 19 16 20
74 1 89 -12 10 -17 8 -25 -8 -14 -26 -14 -64 0 -78 8 -8 6 -14 -8 -21 -11 -6
-20 -23 -21 -43 -1 -18 -8 -39 -15 -47 -7 -8 -11 -18 -11 -21 1 -3 -3 -17 -9
-31 -5 -14 -11 -30 -13 -37 -3 -18 -23 -49 -24 -37 0 6 -10 10 -22 9 -38 -3
-49 4 -37 27 15 27 6 43 -38 72 -36 23 -115 92 -113 98 1 2 -3 16 -9 31 -6 16
-11 47 -11 70 0 34 7 50 34 81 36 39 87 55 113 34 7 -5 18 -6 24 -2 8 4 9 3 5
-4 -5 -8 5 -12 34 -12 24 0 48 -7 56 -15 19 -19 51 -19 69 -1 8 7 19 41 26 74
10 49 10 63 0 76 -7 8 -16 15 -19 14 -4 -1 -15 2 -24 6 -10 5 -30 1 -49 -8
-17 -9 -35 -14 -38 -11 -4 2 -20 6 -36 9 -29 5 -85 52 -85 71 0 6 -8 20 -17
31 -10 11 -19 26 -21 34 -2 8 -11 24 -20 34 -13 15 -14 18 -2 11 8 -4 5 3 -7
17 -13 13 -23 30 -23 36 0 7 -4 12 -8 12 -5 0 -15 24 -22 54 -17 74 -8 163 23
223 28 53 58 133 57 148 -1 5 8 12 19 17 12 4 21 12 21 18 0 6 -4 8 -10 5 -5
-3 -10 -4 -10 0 0 11 55 28 85 26 39 -2 95 -21 118 -40 9 -8 17 -10 17 -6 0 5
5 4 12 -3 7 -7 20 -12 30 -12 10 0 26 -4 36 -9 9 -5 49 -24 89 -42 40 -18 75
-39 78 -47 5 -13 3 -13 -12 -1 -15 12 -16 12 -10 -3 3 -9 1 -19 -6 -22 -14 -7
35 1 55 9 9 4 14 -2 15 -17 0 -13 -1 -17 -4 -10 -6 14 -33 16 -33 2 0 -5 -10
-10 -22 -10 -16 0 -19 -3 -10 -8 14 -9 70 -4 77 7 2 4 6 20 9 35 7 36 5 35 60
42 26 3 59 9 72 14 26 10 121 4 157 -9 12 -5 28 -6 35 -4 6 3 12 0 12 -6 0 -6
7 -11 15 -11 8 0 23 -9 32 -20 10 -11 22 -20 28 -20 5 0 3 5 -5 10 -8 5 -11
10 -7 10 14 0 57 -37 52 -44 -3 -3 -2 -4 2 -1 3 3 11 1 18 -5 7 -6 23 -1 48
15 22 15 38 21 42 15 4 -6 11 -7 17 -4 6 4 14 0 19 -7 4 -7 10 -11 13 -8 11
11 -56 79 -77 79 -11 0 -29 8 -40 18 -11 9 -17 11 -13 5 10 -17 0 -16 -28 2
-13 9 -39 16 -59 17 -20 1 -34 5 -31 10 8 12 75 9 114 -7 91 -35 121 -45 150
-47 17 -1 34 -6 36 -10 7 -11 -14 -10 -54 1 -38 11 -39 9 -9 -22 18 -20 26
-23 47 -14 14 5 34 11 44 12 11 1 22 7 24 13 5 15 49 16 57 2 4 -6 10 -8 15
-5 14 9 30 -19 20 -35 -6 -8 -10 -11 -10 -6 0 6 -6 1 -14 -10 -13 -16 -12 -21
1 -36 12 -13 20 -14 44 -6 16 5 26 14 23 19 -3 5 0 9 6 9 16 0 40 26 32 35 -4
4 4 6 18 4 14 -2 30 0 37 4 7 4 23 6 37 3 46 -8 140 -81 132 -103 -3 -7 6 -21
20 -32 15 -12 23 -25 18 -32 -4 -7 -3 -9 3 -6 6 4 14 -4 17 -18 4 -14 11 -25
16 -25 6 0 10 -6 10 -14 0 -7 7 -19 15 -26 8 -7 12 -16 9 -21 -3 -5 0 -9 6 -9
6 0 9 -4 6 -8 -3 -5 6 -20 19 -34 13 -14 21 -29 18 -32 -4 -3 -1 -6 5 -6 10 0
46 -48 78 -105 72 -129 92 -181 98 -250 2 -29 16 -46 29 -38 7 4 6 -1 -2 -10
-12 -15 -12 -17 3 -11 20 8 21 -9 1 -26 -18 -15 -19 -36 -3 -46 6 -4 8 -3 5 2
-3 6 -2 16 4 24 7 13 9 12 9 -2 0 -16 11 -23 33 -19 4 0 6 -2 6 -6 -4 -23 2
-43 11 -38 9 5 15 -15 11 -37 0 -5 3 -8 8 -8 5 0 19 -24 31 -52 12 -29 35 -80
50 -113 51 -112 56 -133 65 -260 4 -49 9 -93 11 -96 2 -4 6 -27 9 -50 6 -50
14 -105 29 -189 3 -14 7 -42 11 -64 3 -21 8 -42 10 -47 3 -5 8 -25 10 -46 3
-21 9 -56 14 -78 16 -68 40 -178 47 -217 3 -22 10 -35 16 -32 6 4 8 1 6 -7 -3
-8 1 -32 9 -54 12 -35 50 -174 58 -215 2 -8 13 -46 24 -85 12 -38 30 -99 40
-135 56 -190 74 -246 85 -259 8 -11 8 -13 -1 -7 -7 4 -13 2 -13 -3 0 -6 4 -11
8 -11 8 0 37 -89 33 -104 -1 -5 2 -12 6 -15 5 -3 21 -53 35 -111 15 -58 39
-139 54 -180 30 -86 33 -99 40 -160 2 -25 8 -56 13 -70 5 -14 17 -69 26 -122
13 -67 23 -98 32 -98 9 0 12 8 8 22 -3 13 -19 97 -35 188 -17 91 -48 219 -70
285 -21 66 -71 230 -110 365 -40 135 -87 295 -105 355 -18 61 -40 137 -49 170
-9 33 -37 134 -62 225 -72 266 -124 541 -168 895 -11 97 -20 126 -70 240 -61
137 -111 234 -155 300 -15 22 -33 67 -40 100 -18 84 -69 186 -147 295 -36 50
-84 124 -107 164 -22 39 -47 77 -56 84 -9 8 -10 10 -3 7 24 -13 -3 27 -49 74
-66 65 -90 74 -178 67 -66 -6 -81 -4 -114 14 -41 22 -126 42 -141 33 -22 -14
-83 -7 -114 14 -49 32 -98 46 -145 39 -23 -3 -71 -6 -107 -5 -69 1 -78 -8 -17
-15 20 -3 49 -11 64 -19 15 -8 34 -12 42 -9 8 3 11 0 7 -7 -9 -14 6 -15 20 -1
7 7 17 5 30 -5 18 -16 18 -16 -3 -10 -13 4 -23 2 -23 -4 0 -18 21 -23 42 -9
19 13 26 13 52 -1 24 -12 27 -16 13 -19 -9 -2 -15 -9 -11 -15 3 -7 -3 -2 -13
9 -12 15 -24 20 -36 15 -17 -6 -17 -8 -3 -20 14 -12 16 -11 16 5 0 16 2 17 10
4 26 -41 -12 -56 -46 -19 -46 51 -164 89 -278 89 -60 0 -159 -22 -182 -41 -6
-5 -35 5 -75 25 -35 19 -89 44 -119 56 -30 12 -78 32 -105 45 -51 23 -121 45
-140 44 -5 0 -19 -4 -31 -9z m1346 -228 c0 -8 -58 -32 -76 -32 -10 1 56 39 69
40 4 0 7 -4 7 -8z m-1142 -630 c-12 -40 -25 -72 -29 -72 -8 0 10 103 20 110 4
3 11 14 14 24 4 10 10 17 12 14 3 -2 -5 -37 -17 -76z m12 -182 l-8 -35 -1 45
c-1 27 3 40 8 35 6 -6 6 -25 1 -45z m-13 -76 c-3 -3 -12 -4 -19 -1 -8 3 -5 6
6 6 11 1 17 -2 13 -5z m-181 -129 c10 -8 14 -15 8 -15 -5 0 -19 7 -30 15 -10
8 -14 15 -8 15 5 0 19 -7 30 -15z m380 -1526 c3 -5 -9 -9 -25 -9 -20 0 -31 5
-31 14 0 15 46 11 56 -5z"/>
<path d="M3340 4001 c0 -6 4 -12 8 -15 5 -3 9 1 9 9 0 8 -4 15 -9 15 -4 0 -8
-4 -8 -9z"/>
<path d="M3043 3985 c0 -8 4 -12 9 -9 5 3 6 10 3 15 -9 13 -12 11 -12 -6z"/>
<path d="M3370 3991 c0 -5 5 -13 10 -16 6 -3 10 -2 10 4 0 5 -4 13 -10 16 -5
3 -10 2 -10 -4z"/>
<path d="M3405 3989 c-4 -6 -5 -12 -2 -15 2 -3 7 2 10 11 7 17 1 20 -8 4z"/>
<path d="M4005 3980 c-13 -6 -15 -9 -5 -9 8 0 22 4 30 9 18 12 2 12 -25 0z"/>
<path d="M3420 3971 c0 -11 13 -15 39 -12 7 2 10 -2 6 -8 -3 -6 -2 -11 4 -11
15 0 24 20 9 22 -7 0 -17 2 -23 2 -5 1 -16 5 -22 9 -8 5 -13 4 -13 -2z"/>
<path d="M4050 3976 c0 -2 7 -7 16 -10 8 -3 12 -2 9 4 -6 10 -25 14 -25 6z"/>
<path d="M4130 3970 c12 -8 12 -10 1 -10 -8 0 -12 -2 -9 -5 3 -3 13 -2 22 1
14 5 15 9 4 15 -7 5 -17 9 -23 9 -5 0 -3 -5 5 -10z"/>
<path d="M3006 3929 c-19 -38 -20 -42 -5 -34 12 8 32 56 25 62 -2 2 -11 -10
-20 -28z"/>
<path d="M3523 3920 c2 -8 8 -16 13 -16 30 -5 53 -18 47 -27 -3 -6 5 -2 19 9
14 10 24 23 21 28 -3 4 -9 2 -13 -5 -6 -8 -13 -10 -22 -3 -7 5 -22 9 -33 9
-11 0 -24 4 -28 10 -5 6 -7 4 -4 -5z"/>
<path d="M3676 3922 c-2 -4 11 -6 30 -4 19 2 34 6 34 8 0 8 -59 4 -64 -4z"/>
<path d="M3828 3923 c7 -3 16 -2 19 1 4 3 -2 6 -13 5 -11 0 -14 -3 -6 -6z"/>
<path d="M3640 3909 c0 -5 5 -7 10 -4 6 3 10 8 10 11 0 2 -4 4 -10 4 -5 0 -10
-5 -10 -11z"/>
<path d="M4193 3913 c9 -8 57 -13 57 -6 0 5 -14 9 -31 9 -16 1 -28 0 -26 -3z"/>
<path d="M4291 3916 c2 -2 27 -6 54 -10 34 -4 45 -3 35 4 -14 9 -99 15 -89 6z"/>
<path d="M4400 3902 c0 -12 24 -22 52 -22 25 0 20 8 -8 13 -10 1 -25 6 -31 10
-7 5 -13 4 -13 -1z"/>
<path d="M4570 3880 c8 -5 22 -10 30 -10 13 0 13 1 0 10 -8 5 -22 10 -30 10
-13 0 -13 -1 0 -10z"/>
<path d="M2980 3856 c0 -14 -4 -28 -10 -31 -5 -3 -10 -12 -10 -18 0 -7 9 2 20
18 22 33 26 55 10 55 -5 0 -10 -11 -10 -24z"/>
<path d="M4525 3870 c-3 -6 1 -7 9 -4 18 7 21 14 7 14 -6 0 -13 -4 -16 -10z"/>
<path d="M4450 3860 c8 -5 26 -9 40 -9 l25 1 -25 8 c-14 4 -32 8 -40 9 -13 1
-13 0 0 -9z"/>
<path d="M4682 3831 c14 -11 33 -21 41 -21 8 0 14 -7 13 -16 0 -9 5 -18 12
-20 7 -1 8 0 2 3 -5 2 -10 9 -10 14 0 6 5 7 10 4 6 -3 10 -1 10 5 0 7 -9 14
-20 17 -11 3 -18 9 -15 12 2 4 -1 8 -8 8 -7 0 -23 3 -37 8 l-25 7 27 -21z"/>
<path d="M3830 3821 c0 -6 7 -7 17 -4 11 4 14 3 9 -5 -4 -7 -2 -12 4 -12 7 0
10 6 8 13 -6 15 -38 22 -38 8z"/>
<path d="M4775 3765 c7 -31 12 -41 19 -34 2 2 -3 18 -11 34 l-14 30 6 -30z"/>
<path d="M2910 3696 c0 -9 -4 -15 -8 -12 -5 3 -6 -9 -3 -27 5 -29 6 -30 9 -7
2 14 9 28 15 32 9 5 9 10 -1 20 -9 9 -12 8 -12 -6z"/>
<path d="M4822 3661 c7 -12 16 -21 20 -21 4 0 5 -6 2 -13 -3 -8 4 -24 14 -37
14 -18 19 -19 19 -7 0 9 -4 14 -8 12 -4 -3 -10 2 -13 11 -9 25 -7 27 11 13 14
-12 14 -10 -2 14 -10 15 -26 32 -37 38 -17 9 -18 8 -6 -10z"/>
<path d="M3281 3623 c-12 -13 -11 -20 4 -52 10 -20 19 -38 20 -41 1 -3 9 -22
18 -42 10 -21 17 -41 17 -46 0 -20 26 -32 42 -19 17 13 31 90 14 80 -5 -4 -6
-1 0 8 14 22 10 73 -6 91 -9 9 -31 20 -49 23 -19 3 -37 7 -40 9 -3 2 -12 -3
-20 -11z m61 -25 l39 -11 -3 -79 c-2 -43 -6 -78 -10 -78 -5 0 -8 10 -8 23 -1
12 -16 52 -34 90 -18 37 -30 67 -28 67 3 0 22 -5 44 -12z"/>
<path d="M3330 3573 c1 -4 7 -19 16 -33 l14 -25 -2 29 c-2 16 -9 31 -15 34 -7
2 -13 0 -13 -5z"/>
<path d="M2910 3586 c0 -31 6 -34 13 -6 3 11 1 23 -4 26 -5 3 -9 -6 -9 -20z"/>
<path d="M4888 3569 c-3 -8 0 -23 8 -34 16 -21 18 -5 5 29 -6 16 -9 17 -13 5z"/>
<path d="M2930 3515 c5 -14 16 -35 24 -47 8 -13 14 -26 13 -30 -1 -4 5 -16 14
-26 12 -14 14 -25 7 -38 -9 -18 -9 -18 5 -1 15 18 15 18 19 0 2 -11 6 -14 10
-7 4 6 -4 22 -18 37 -13 15 -25 29 -25 32 -2 17 -25 65 -31 65 -4 0 -8 9 -8
20 0 11 -4 20 -10 20 -6 0 -6 -9 0 -25z"/>
<path d="M4914 3509 c-3 -5 2 -12 10 -15 9 -3 14 -10 11 -14 -2 -4 4 -15 15
-25 11 -10 20 -25 20 -34 0 -11 3 -12 8 -4 5 8 12 2 21 -18 7 -16 17 -29 23
-29 6 0 4 8 -5 18 -10 10 -17 23 -17 28 0 5 -14 21 -30 36 -19 16 -26 29 -20
33 6 4 9 12 7 18 -4 13 -35 18 -43 6z"/>
<path d="M3031 3344 c0 -11 3 -14 6 -6 3 7 2 16 -1 19 -3 4 -6 -2 -5 -13z"/>
<path d="M5044 3319 c14 -26 24 -48 22 -50 -2 -2 2 -9 9 -16 10 -9 17 -7 31
10 10 12 12 16 4 10 -20 -18 -27 -16 -34 10 -3 12 -17 36 -32 52 l-26 30 26
-46z"/>
<path d="M3048 3314 c-11 -11 35 -82 61 -95 14 -7 29 -12 34 -11 4 1 7 -6 7
-15 0 -14 2 -15 9 -5 6 10 10 10 20 -2 10 -12 18 -13 32 -5 11 5 19 6 19 1 0
-15 51 -11 57 5 7 18 -2 27 -19 17 -17 -11 -68 -12 -68 -1 0 5 -4 6 -8 3 -5
-3 -21 2 -36 10 -16 7 -34 14 -41 14 -7 0 -19 8 -26 18 -11 14 -11 15 1 5 23
-21 35 -15 15 7 -14 16 -20 17 -27 8 -6 -10 -8 -8 -9 5 -3 30 -4 35 -10 41 -3
3 -8 3 -11 0z"/>
<path d="M5096 3225 c-3 -8 -1 -27 4 -40 5 -14 11 -39 12 -55 1 -17 6 -30 11
-30 4 0 6 -3 4 -7 -7 -12 60 -106 67 -95 3 6 3 18 0 27 -5 11 -9 13 -14 5 -4
-7 -12 0 -20 19 -7 17 -17 31 -23 31 -7 0 -7 4 1 12 9 9 8 14 -3 22 -9 6 -16
30 -18 53 -1 22 -6 39 -11 36 -4 -3 -5 4 -1 16 7 24 0 29 -9 6z"/>
<path d="M3047 3199 c6 -23 9 -24 16 -5 3 8 0 17 -7 19 -10 4 -12 -1 -9 -14z"/>
<path d="M3100 3199 c0 -5 5 -7 10 -4 6 3 10 8 10 11 0 2 -4 4 -10 4 -5 0 -10
-5 -10 -11z"/>
<path d="M2971 3167 c-13 -20 -13 -21 2 -8 21 17 21 9 2 -29 -9 -17 -13 -30
-11 -30 13 0 36 62 29 75 -7 12 -11 10 -22 -8z"/>
<path d="M2930 2995 c0 -27 3 -45 7 -41 7 7 5 77 -3 85 -2 2 -4 -17 -4 -44z"/>
<path d="M5217 2953 c-4 -6 10 -44 30 -84 20 -41 36 -78 35 -82 -1 -5 2 -6 8
-2 7 4 6 13 -2 28 -7 12 -13 28 -14 36 -2 8 -7 17 -12 20 -5 3 -16 26 -24 51
-8 24 -17 39 -21 33z"/>
<path d="M2966 2891 c-4 -6 -2 -11 5 -11 7 0 9 -3 6 -7 -8 -7 60 -73 75 -73 6
0 5 -6 -2 -15 -12 -14 -6 -35 10 -35 5 0 14 9 20 20 9 16 6 22 -20 35 -17 9
-28 20 -25 25 4 6 -1 7 -11 3 -14 -5 -16 -3 -11 11 4 10 3 15 -3 11 -5 -3 -15
6 -23 21 -9 17 -17 23 -21 15z m104 -116 c-7 -9 -15 -13 -17 -11 -7 7 7 26 19
26 6 0 6 -6 -2 -15z"/>
<path d="M2975 2821 c-3 -5 -2 -12 3 -15 5 -3 9 1 9 9 0 17 -3 19 -12 6z"/>
<path d="M5297 2773 c-4 -3 -7 -11 -7 -17 0 -6 5 -5 12 2 6 6 9 14 7 17 -3 3
-9 2 -12 -2z"/>
<path d="M5312 2747 c-8 -9 -9 -18 -3 -21 5 -3 12 0 14 6 3 7 5 2 5 -12 0 -14
6 -43 15 -65 l15 -40 -1 36 c-1 21 -6 34 -11 31 -5 -3 -7 1 -4 9 3 8 1 28 -6
43 -10 25 -13 27 -24 13z"/>
<path d="M4583 2703 c15 -4 17 -20 18 -146 0 -78 2 -187 5 -242 3 -69 1 -95
-6 -85 -5 9 -10 88 -10 185 0 173 -7 275 -19 275 -4 0 -7 -89 -6 -197 0 -109
-4 -209 -9 -223 -5 -14 -10 -34 -11 -45 -1 -11 -5 -32 -10 -47 -4 -17 -3 -28
3 -28 5 0 13 24 17 53 5 29 10 43 12 31 5 -29 40 -38 53 -15 11 22 8 241 -4
260 -7 10 -6 12 4 6 8 -5 11 -4 7 1 -3 5 -7 52 -8 104 -2 98 -10 121 -38 119
-13 -1 -13 -2 2 -6z"/>
<path d="M3123 2685 c0 -8 4 -12 9 -9 5 3 6 10 3 15 -9 13 -12 11 -12 -6z"/>
<path d="M3154 2655 c11 -8 28 -13 37 -10 10 4 21 -1 27 -11 7 -12 11 -13 17
-4 4 6 2 17 -4 23 -6 6 -11 8 -11 4 0 -4 -10 -3 -21 4 -15 8 -19 8 -15 0 4 -6
3 -11 -3 -11 -5 0 -13 5 -16 10 -3 6 -12 10 -18 10 -7 0 -3 -7 7 -15z"/>
<path d="M3259 2633 c-4 -109 14 -174 23 -83 2 22 -1 34 -8 33 -8 -1 -10 13
-6 42 2 25 2 45 -2 45 -3 0 -7 -17 -7 -37z"/>
<path d="M3210 2601 c0 -5 4 -12 9 -15 13 -8 7 -36 -10 -46 -10 -7 -8 -9 8 -7
17 1 22 7 21 27 -2 24 -28 63 -28 41z"/>
<path d="M5377 2566 c-8 -21 4 -159 13 -149 5 4 4 35 -1 68 -4 33 -6 68 -3 78
6 21 -2 23 -9 3z"/>
<path d="M3235 2491 c-7 -12 12 -24 25 -16 11 7 4 25 -10 25 -5 0 -11 -4 -15
-9z"/>
<path d="M3616 2482 c-3 -5 1 -9 9 -9 8 0 12 4 9 9 -3 4 -7 8 -9 8 -2 0 -6 -4
-9 -8z"/>
<path d="M4494 2469 c-4 -8 -3 -9 4 -5 7 4 12 1 12 -9 0 -10 -5 -13 -12 -9 -7
4 -8 3 -4 -5 9 -14 26 -5 26 14 0 19 -17 28 -26 14z"/>
<path d="M3241 2384 c0 -11 3 -14 6 -6 3 7 2 16 -1 19 -3 4 -6 -2 -5 -13z"/>
<path d="M5385 2370 c3 -5 8 -10 11 -10 2 0 4 5 4 10 0 6 -5 10 -11 10 -5 0
-7 -4 -4 -10z"/>
<path d="M5390 2340 c0 -5 5 -10 11 -10 5 0 7 5 4 10 -3 6 -8 10 -11 10 -2 0
-4 -4 -4 -10z"/>
<path d="M5400 2311 c0 -5 7 -11 15 -15 8 -3 15 -1 15 3 0 5 -7 11 -15 15 -8
3 -15 1 -15 -3z"/>
<path d="M5401 2265 c0 -5 4 -18 7 -27 7 -16 8 -16 20 3 9 14 10 19 2 14 -7
-4 -16 -1 -21 6 -5 8 -8 10 -8 4z"/>
<path d="M3591 2244 c0 -11 3 -14 6 -6 3 7 2 16 -1 19 -3 4 -6 -2 -5 -13z"/>
<path d="M3215 2240 c3 -5 8 -10 11 -10 2 0 4 5 4 10 0 6 -5 10 -11 10 -5 0
-7 -4 -4 -10z"/>
<path d="M3241 2204 c0 -11 3 -14 6 -6 3 7 2 16 -1 19 -3 4 -6 -2 -5 -13z"/>
<path d="M5414 2195 c4 -24 16 -30 16 -7 0 12 -4 22 -9 22 -5 0 -8 -7 -7 -15z"/>
<path d="M4566 2188 c-3 -7 -7 -26 -10 -41 -4 -17 -11 -25 -18 -21 -7 4 -8 3
-4 -4 4 -7 9 -12 11 -12 7 0 26 41 31 66 5 25 -4 34 -10 12z"/>
<path d="M3210 2176 c0 -8 4 -17 9 -20 5 -4 7 3 4 14 -6 23 -13 26 -13 6z"/>
<path d="M3232 2110 c0 -19 2 -27 5 -17 2 9 2 25 0 35 -3 9 -5 1 -5 -18z"/>
<path d="M3223 2005 c0 -22 2 -30 4 -17 2 12 2 30 0 40 -3 9 -5 -1 -4 -23z"/>
<path d="M5462 1975 c-1 -37 2 -54 7 -45 5 8 5 35 1 60 l-7 45 -1 -60z"/>
<path d="M3212 1885 c-1 -22 -5 -51 -7 -65 l-6 -25 11 25 c6 13 9 42 7 65 l-4
40 -1 -40z"/>
<path d="M5471 1894 c0 -11 3 -14 6 -6 3 7 2 16 -1 19 -3 4 -6 -2 -5 -13z"/>
<path d="M5487 1873 c-4 -3 -7 -11 -7 -17 0 -6 5 -5 12 2 6 6 9 14 7 17 -3 3
-9 2 -12 -2z"/>
<path d="M4632 1727 c1 -77 6 -141 11 -144 12 -7 8 -63 -5 -63 -8 0 -9 -3 -3
-8 12 -8 17 -64 5 -57 -7 5 -24 -43 -25 -70 0 -5 -6 -16 -12 -23 -16 -17 -16
-29 -1 -38 7 -5 8 -3 4 5 -5 7 0 21 9 31 9 10 14 24 10 29 -3 6 -1 11 5 11 7
0 10 6 7 13 -3 7 4 19 14 25 17 11 19 9 20 -20 0 -18 2 -75 4 -125 2 -53 -1
-91 -6 -87 -5 3 -6 -2 -2 -11 5 -13 8 -14 15 -3 8 12 2 294 -7 308 -2 3 -6 39
-9 79 -3 40 -8 76 -10 79 -2 4 -7 50 -11 102 -4 52 -9 97 -12 100 -2 3 -3 -57
-1 -133z"/>
<path d="M5491 1813 c5 -13 11 -37 14 -53 9 -54 34 -135 34 -115 1 11 -5 40
-12 65 -7 25 -13 54 -13 65 1 11 -3 23 -9 28 -6 4 -5 10 3 16 11 6 9 9 -6 14
-18 4 -20 2 -11 -20z"/>
<path d="M3202 1745 c0 -16 2 -22 5 -12 2 9 2 23 0 30 -3 6 -5 -1 -5 -18z"/>
<path d="M1161 1669 c-13 -5 -22 -11 -20 -14 8 -7 49 7 49 16 0 5 -1 9 -2 8
-2 0 -14 -5 -27 -10z"/>
<path d="M1276 1668 c3 -4 9 -8 15 -8 5 0 9 4 9 8 0 5 -7 9 -15 9 -8 0 -12 -4
-9 -9z"/>
<path d="M1335 1670 c-18 -8 -17 -9 8 -9 16 -1 26 3 22 9 -3 6 -7 10 -8 9 -1
0 -11 -4 -22 -9z"/>
<path d="M3193 1630 c0 -30 2 -43 4 -27 2 15 2 39 0 55 -2 15 -4 2 -4 -28z"/>
<path d="M1026 1663 c-16 -16 -2 -22 40 -19 25 2 50 8 57 15 8 8 2 8 -22 1
-21 -6 -40 -6 -51 0 -10 5 -20 6 -24 3z"/>
<path d="M1228 1663 c7 -3 16 -2 19 1 4 3 -2 6 -13 5 -11 0 -14 -3 -6 -6z"/>
<path d="M1380 1659 c0 -5 11 -9 25 -9 14 0 25 2 25 4 0 2 -11 6 -25 8 -14 3
-25 1 -25 -3z"/>
<path d="M1443 1655 c0 -7 6 -11 14 -8 7 3 13 6 13 8 0 2 -6 5 -13 8 -8 3 -14
-1 -14 -8z"/>
<path d="M950 1653 c6 -2 0 -14 -12 -25 l-23 -20 23 13 c25 15 31 32 13 35 -7
2 -8 1 -1 -3z"/>
<path d="M910 1639 c0 -5 5 -7 10 -4 6 3 10 8 10 11 0 2 -4 4 -10 4 -5 0 -10
-5 -10 -11z"/>
<path d="M1470 1640 c-9 -6 -10 -10 -3 -10 6 0 15 5 18 10 8 12 4 12 -15 0z"/>
<path d="M1200 1628 c-58 -5 -133 -10 -168 -12 -47 -3 -80 -13 -133 -40 -55
-28 -82 -36 -125 -36 -68 0 -167 -46 -274 -128 -92 -70 -119 -113 -180 -284
-27 -73 -62 -169 -79 -213 -17 -44 -40 -112 -50 -152 -12 -45 -34 -95 -60
-134 -54 -81 -75 -152 -68 -237 5 -55 3 -70 -14 -93 -11 -15 -16 -34 -13 -44
7 -18 -15 -97 -25 -90 -4 2 -7 -5 -7 -15 0 -10 4 -16 8 -14 4 3 8 1 8 -5 0 -5
-5 -13 -11 -17 -8 -5 -8 -9 1 -14 9 -6 9 -13 1 -28 -20 -37 -11 -48 14 -17 19
23 22 32 12 44 -7 8 -7 12 -2 9 6 -3 11 9 12 31 3 45 6 63 16 78 4 7 5 24 1
38 -4 17 -1 32 9 43 10 12 16 48 19 122 4 83 10 114 28 148 12 23 26 45 31 48
19 11 59 92 63 127 5 34 26 107 45 152 53 127 80 201 87 237 2 9 20 52 41 95
38 81 83 138 115 148 10 4 17 9 15 13 -2 4 16 22 40 40 25 18 41 28 37 21 -4
-7 8 -1 28 14 19 15 43 27 52 27 9 0 15 4 12 8 -2 4 28 9 67 10 58 3 85 10
137 36 45 22 82 33 120 35 30 1 58 5 63 8 14 8 78 13 192 14 118 0 126 -1 195
-34 46 -22 104 -28 152 -15 15 3 30 3 33 -1 4 -7 39 -18 80 -25 6 -1 17 -5 25
-8 8 -4 43 -14 78 -24 34 -10 62 -21 62 -26 0 -4 8 -8 18 -8 32 0 182 -165
182 -200 0 -6 7 -18 15 -27 8 -8 12 -19 9 -25 -4 -7 -2 -8 4 -4 8 5 12 -1 12
-14 0 -12 9 -34 19 -49 11 -15 23 -40 27 -57 4 -16 12 -36 19 -44 14 -17 31
-72 70 -217 3 -12 9 -32 12 -45 4 -13 7 -66 8 -118 1 -52 2 -100 3 -105 3 -17
79 -94 106 -109 34 -17 20 -41 -16 -27 -21 8 -29 6 -42 -8 -28 -30 -15 -81 35
-136 24 -27 47 -101 28 -89 -17 10 -35 -38 -34 -91 1 -34 -3 -55 -9 -55 -6 0
-4 -5 4 -10 13 -8 13 -10 0 -10 -11 0 -11 -3 -2 -12 10 -10 15 -10 22 2 8 12
10 13 10 1 0 -8 3 -12 6 -9 3 4 1 16 -6 27 -6 12 -7 21 -2 21 5 0 8 22 8 49
-1 27 -4 47 -8 44 -5 -2 -8 1 -8 7 0 7 7 9 15 6 18 -7 23 4 28 59 2 21 9 41
16 43 18 6 13 18 -9 20 -45 4 -48 6 -45 28 1 15 -4 24 -16 27 -17 5 -37 52
-27 63 3 2 17 0 32 -6 33 -12 66 2 66 30 0 10 -28 43 -65 75 l-65 57 0 94 c0
158 -47 321 -159 549 -72 147 -131 224 -210 279 -62 43 -289 107 -371 104 -51
-1 -72 3 -99 19 -19 12 -57 24 -85 28 -28 4 -58 8 -66 9 -8 1 -62 -1 -120 -6z"/>
<path d="M1508 1618 c-4 -9 3 -14 21 -15 14 -1 19 1 11 4 -8 3 -18 10 -21 15
-3 5 -9 3 -11 -4z"/>
<path d="M875 1609 c-11 -17 1 -21 15 -4 8 9 8 15 2 15 -6 0 -14 -5 -17 -11z"/>
<path d="M3162 1590 c0 -14 2 -19 5 -12 2 6 2 18 0 25 -3 6 -5 1 -5 -13z"/>
<path d="M812 1588 c9 -5 7 -8 -7 -9 -11 0 -14 -3 -7 -6 16 -6 62 5 62 16 0 4
-14 8 -30 8 -20 0 -26 -3 -18 -9z"/>
<path d="M1740 1590 c-9 -6 -10 -10 -3 -10 6 0 15 5 18 10 8 12 4 12 -15 0z"/>
<path d="M5546 1588 c5 -7 9 -21 9 -31 1 -10 8 -23 16 -28 10 -6 11 -9 1 -9
-9 0 -10 -5 -2 -19 5 -11 10 -29 10 -40 0 -24 16 -36 26 -20 5 8 3 9 -6 4 -10
-6 -12 0 -8 23 2 17 0 28 -5 25 -5 -3 -8 3 -7 13 4 37 0 55 -11 49 -6 -4 -10
-1 -8 6 3 26 -1 39 -12 39 -5 0 -7 -6 -3 -12z"/>
<path d="M678 1568 c-21 -11 -38 -24 -38 -29 0 -5 17 1 38 14 20 13 44 26 52
30 13 5 13 5 0 5 -8 0 -32 -9 -52 -20z"/>
<path d="M1840 1553 c8 -3 32 -14 53 -25 20 -10 37 -15 37 -11 0 10 -75 43
-93 42 -7 0 -6 -3 3 -6z"/>
<path d="M1235 1528 c-11 -6 -23 -16 -27 -22 -9 -13 11 -38 24 -30 13 8 59
-16 52 -27 -7 -12 42 -23 58 -13 19 12 38 14 38 3 0 -5 9 -9 19 -9 11 0 23 -5
26 -11 4 -6 14 -7 24 -4 26 11 59 13 72 4 14 -8 39 6 39 22 0 5 -12 15 -27 23
-19 10 -23 15 -11 16 9 0 20 -4 23 -10 12 -20 26 -10 15 11 -10 17 -17 19 -48
14 -20 -4 -48 -8 -62 -10 -14 -1 -33 -6 -43 -10 -10 -4 -21 -5 -24 -1 -4 3 2
6 11 6 20 0 17 21 -4 28 -8 3 -10 0 -5 -7 4 -7 -10 -4 -31 7 -53 27 -95 34
-119 20z m70 -28 c-22 -8 -57 -1 -50 9 2 4 19 5 37 3 27 -4 29 -6 13 -12z
m-71 -5 c-4 -8 -10 -12 -15 -9 -11 6 -2 24 11 24 5 0 7 -7 4 -15z m136 -27 c0
-6 -8 -7 -17 -4 -9 4 -20 1 -24 -6 -7 -10 -11 -10 -21 0 -9 9 -8 12 6 12 9 0
15 4 12 9 -3 4 6 6 19 3 14 -2 25 -9 25 -14z m136 -10 c4 -5 -4 -8 -19 -8 -14
0 -28 4 -31 8 -6 10 40 10 50 0z m-61 -8 c8 -13 -25 -13 -45 0 -12 8 -9 10 12
10 15 0 30 -4 33 -10z"/>
<path d="M580 1515 c-7 -8 -19 -15 -28 -15 -8 0 -13 -3 -9 -6 9 -9 45 5 51 21
7 19 2 19 -14 0z"/>
<path d="M3162 1505 c0 -16 2 -22 5 -12 2 9 2 23 0 30 -3 6 -5 -1 -5 -18z"/>
<path d="M1943 1503 c0 -6 4 -10 8 -7 4 2 14 -3 22 -11 20 -20 26 -19 22 3 -2
9 -4 19 -4 23 -2 11 -48 4 -48 -8z"/>
<path d="M1688 1473 c-1 -5 -16 -16 -33 -25 -37 -20 -45 -53 -15 -61 18 -5 20
-9 11 -26 -9 -16 -8 -22 8 -31 28 -14 58 -12 86 6 28 19 33 49 9 62 -14 8 -14
13 -4 32 11 20 10 25 -6 37 -19 14 -50 17 -56 6z m52 -21 c0 -4 -12 -15 -26
-23 l-27 -16 32 -19 c30 -18 41 -34 22 -34 -5 0 -16 -3 -25 -6 -11 -4 -16 0
-16 13 0 20 -35 47 -50 38 -5 -3 -11 -1 -15 5 -3 5 3 10 14 10 11 0 23 5 26
11 12 18 65 36 65 21z m-50 -102 c0 -5 -7 -10 -16 -10 -8 0 -12 5 -9 10 3 6
10 10 16 10 5 0 9 -4 9 -10z"/>
<path d="M2026 1443 c10 -18 21 -30 26 -27 4 3 8 -3 9 -13 0 -16 1 -16 8 2 10
23 4 38 -10 29 -5 -3 -19 5 -30 18 l-20 23 17 -32z"/>
<path d="M443 1425 c1 -5 -6 -9 -16 -8 -10 0 -16 -2 -13 -5 3 -3 1 -10 -4 -17
-7 -8 -5 -12 5 -12 8 0 13 3 10 5 -3 3 9 15 26 28 26 19 28 23 11 21 -11 0
-20 -6 -19 -12z"/>
<path d="M3162 1415 c0 -16 2 -22 5 -12 2 9 2 23 0 30 -3 6 -5 -1 -5 -18z"/>
<path d="M1390 1416 c0 -2 7 -6 15 -10 8 -3 15 -1 15 4 0 6 -7 10 -15 10 -8 0
-15 -2 -15 -4z"/>
<path d="M1143 1389 c-14 -14 1 -33 34 -43 23 -7 37 13 27 39 -7 18 -45 20
-61 4z m27 -20 c0 -6 -4 -7 -10 -4 -5 3 -10 11 -10 16 0 6 5 7 10 4 6 -3 10
-11 10 -16z m30 0 c0 -5 -4 -9 -10 -9 -5 0 -10 7 -10 16 0 8 5 12 10 9 6 -3
10 -10 10 -16z"/>
<path d="M1403 1385 c-18 -8 -33 -17 -33 -21 0 -4 3 -4 7 -1 3 4 15 0 25 -10
12 -10 18 -12 18 -4 0 7 4 10 8 7 4 -2 8 6 8 20 0 13 0 24 0 24 -1 -1 -16 -7
-33 -15z m22 -15 c-3 -5 -11 -10 -16 -10 -6 0 -7 5 -4 10 3 6 11 10 16 10 6 0
7 -4 4 -10z"/>
<path d="M1564 1384 c5 -12 2 -15 -11 -10 -15 6 -15 4 2 -14 22 -24 26 -25 18
-3 -5 11 -3 14 6 8 10 -6 11 -3 2 14 -14 25 -26 28 -17 5z"/>
<path d="M2076 1381 c-3 -4 3 -16 14 -26 11 -10 20 -13 20 -8 0 6 -7 14 -16
17 -8 3 -12 10 -9 16 3 5 4 10 1 10 -3 0 -7 -4 -10 -9z"/>
<path d="M3150 1375 c0 -9 49 -83 58 -89 5 -3 9 1 9 9 0 8 -3 12 -7 10 -7 -5
-46 56 -42 68 1 4 -2 7 -8 7 -5 0 -10 -2 -10 -5z"/>
<path d="M390 1359 c0 -6 -7 -8 -17 -4 -15 5 -16 4 -5 -6 10 -11 15 -10 29 4
11 11 13 17 5 17 -7 0 -12 -5 -12 -11z"/>
<path d="M2126 1348 c3 -5 10 -6 15 -3 13 9 11 12 -6 12 -8 0 -12 -4 -9 -9z"/>
<path d="M5630 1340 c6 -11 13 -20 16 -20 2 0 0 9 -6 20 -6 11 -13 20 -16 20
-2 0 0 -9 6 -20z"/>
<path d="M359 1328 c15 -21 2 -24 -19 -5 -12 10 -12 9 0 -6 12 -16 11 -22 -4
-47 -9 -16 -17 -33 -18 -37 -4 -26 -11 -43 -19 -43 -5 0 -9 -4 -9 -10 0 -34
40 24 46 67 1 7 11 25 23 42 20 27 20 30 3 42 -15 13 -16 12 -3 -3z"/>
<path d="M1560 1312 c21 -18 22 -21 7 -22 -10 0 -15 5 -12 10 3 6 1 10 -4 10
-6 0 -9 -8 -7 -17 5 -31 18 -53 28 -53 7 0 6 5 -1 14 -8 10 -8 16 2 25 8 6 18
7 22 3 5 -4 2 4 -7 18 -8 14 -24 27 -34 29 -16 3 -14 -1 6 -17z"/>
<path d="M1381 1298 c8 -15 14 -16 30 -8 25 14 16 30 -16 28 -19 -2 -22 -5
-14 -20z"/>
<path d="M2120 1303 c0 -2 9 -12 20 -23 20 -20 20 -20 18 4 -2 17 -8 24 -20
23 -10 -1 -18 -3 -18 -4z"/>
<path d="M4572 1289 c-8 -12 -9 -18 -3 -15 5 3 12 -2 14 -11 3 -13 5 -12 6 5
0 13 5 20 11 17 6 -3 7 1 4 9 -8 21 -17 20 -32 -5z"/>
<path d="M5626 1295 c4 -8 8 -15 10 -15 2 0 4 7 4 15 0 8 -4 15 -10 15 -5 0
-7 -7 -4 -15z"/>
<path d="M1205 1287 c-21 -11 -19 -24 6 -32 15 -5 17 -10 9 -20 -8 -10 -8 -15
1 -21 8 -5 9 -3 4 6 -6 10 -3 12 14 7 13 -3 28 1 37 11 15 14 15 17 0 27 -9 7
-16 17 -16 23 0 12 -33 12 -55 -1z m45 -22 c16 -9 19 -14 9 -15 -8 0 -24 7
-35 15 -24 18 -7 19 26 0z"/>
<path d="M3230 1290 c0 -5 5 -10 11 -10 5 0 7 5 4 10 -3 6 -8 10 -11 10 -2 0
-4 -4 -4 -10z"/>
<path d="M5646 1273 c-6 -14 -5 -15 5 -6 7 7 10 15 7 18 -3 3 -9 -2 -12 -12z"/>
<path d="M3288 1273 c7 -3 16 -2 19 1 4 3 -2 6 -13 5 -11 0 -14 -3 -6 -6z"/>
<path d="M3344 1258 c-5 -8 -2 -9 10 -5 10 4 28 4 40 1 25 -6 26 -22 10 -154
-11 -92 -11 -110 -1 -110 5 0 7 10 6 23 -1 12 1 42 4 67 4 25 9 65 11 90 2 25
5 50 6 55 8 35 -1 45 -39 45 -22 0 -43 -5 -47 -12z"/>
<path d="M2161 1234 c0 -11 3 -14 6 -6 3 7 2 16 -1 19 -3 4 -6 -2 -5 -13z"/>
<path d="M1545 1220 c3 -5 12 -7 20 -3 21 7 19 13 -6 13 -11 0 -18 -4 -14 -10z"/>
<path d="M2180 1217 c0 -11 6 -31 14 -45 8 -15 22 -46 31 -69 10 -24 22 -43
27 -43 5 0 2 10 -6 23 -8 12 -15 24 -15 27 0 6 -6 28 -17 55 -4 11 -8 22 -8
25 -1 3 -7 14 -13 25 -12 19 -12 19 -13 2z"/>
<path d="M1519 1213 c-1 -5 -1 -11 0 -15 0 -4 -8 -6 -19 -5 -11 1 -20 5 -20
10 0 12 -58 1 -76 -14 -16 -13 3 -39 24 -32 7 3 18 0 26 -6 16 -13 69 5 60 21
-3 4 5 12 18 17 18 8 19 10 5 10 -10 1 -15 6 -12 11 3 6 4 10 1 10 -3 0 -7 -3
-7 -7z m-89 -33 c0 -5 -4 -10 -10 -10 -5 0 -10 5 -10 10 0 6 5 10 10 10 6 0
10 -4 10 -10z m45 -1 c11 -17 2 -18 -19 -3 -17 12 -17 14 -4 14 9 0 20 -5 23
-11z"/>
<path d="M5660 1192 c0 -18 5 -32 10 -32 6 0 8 11 4 28 -10 39 -14 40 -14 4z"/>
<path d="M4513 1188 c-9 -10 -11 -18 -6 -18 6 0 14 8 18 18 7 16 8 16 14 -2 7
-19 8 -19 13 0 7 26 -16 27 -39 2z"/>
<path d="M1110 1193 c-9 -2 -21 -13 -29 -24 -7 -12 -8 -18 -3 -15 6 3 12 -1
16 -9 3 -9 12 -12 22 -8 14 5 13 8 -7 20 l-24 14 25 -5 c35 -7 60 8 34 21 -11
5 -26 8 -34 6z m25 -13 c3 -5 1 -10 -4 -10 -6 0 -11 5 -11 10 0 6 2 10 4 10 3
0 8 -4 11 -10z"/>
<path d="M4693 1106 c0 -49 3 -83 6 -75 4 8 4 48 1 89 l-7 75 0 -89z"/>
<path d="M4302 1156 c11 -27 32 -37 22 -12 -7 17 20 28 51 20 12 -3 25 -2 28
3 3 5 -21 10 -54 11 l-59 3 12 -25z"/>
<path d="M4415 1160 c-7 -12 2 -12 30 0 19 8 19 9 -2 9 -12 1 -25 -3 -28 -9z"/>
<path d="M4475 1160 c-8 -13 3 -30 18 -30 8 0 7 3 -2 9 -7 5 -10 14 -7 20 4 6
5 11 2 11 -3 0 -8 -4 -11 -10z"/>
<path d="M282 1134 c-7 -8 -8 -14 -3 -14 10 0 25 19 20 25 -2 1 -10 -3 -17
-11z"/>
<path d="M1430 1140 c0 -5 5 -10 11 -10 5 0 7 5 4 10 -3 6 -8 10 -11 10 -2 0
-4 -4 -4 -10z"/>
<path d="M5670 1145 c0 -4 9 -18 20 -32 11 -14 20 -22 20 -18 0 4 -9 18 -20
32 -11 14 -20 22 -20 18z"/>
<path d="M1405 1130 c-3 -5 -1 -10 4 -10 6 0 11 5 11 10 0 6 -2 10 -4 10 -3 0
-8 -4 -11 -10z"/>
<path d="M255 1106 c14 -21 11 -61 -4 -52 -3 2 -7 -8 -8 -22 -1 -24 1 -23 19
11 18 36 18 40 3 63 -8 13 -18 24 -20 24 -3 0 1 -11 10 -24z"/>
<path d="M1150 1122 c0 -17 29 -34 46 -28 17 7 17 13 -1 16 -5 1 -18 6 -27 11
-11 6 -18 6 -18 1z"/>
<path d="M1247 1118 c-22 -8 -26 -14 -21 -30 5 -16 3 -18 -7 -12 -8 5 -24 7
-36 6 -13 -2 -27 6 -37 20 l-16 22 0 -26 c0 -30 23 -48 50 -41 10 3 21 0 25
-7 5 -8 10 -8 21 0 10 9 20 7 43 -9 26 -19 30 -19 42 -5 7 8 20 13 30 11 12
-3 15 0 12 14 -7 24 -12 24 -40 -3 -13 -12 -23 -16 -23 -9 0 6 7 14 15 17 8 4
15 12 15 19 0 9 12 13 33 13 17 -1 26 -3 20 -5 -15 -5 -18 -33 -4 -33 5 0 11
9 14 20 8 31 -34 56 -63 38 -18 -10 -24 -10 -27 0 -5 14 -8 14 -46 0z m43 -29
c0 -5 -4 -7 -10 -4 -5 3 -10 -1 -10 -10 0 -15 -2 -15 -15 -1 -21 20 -19 26 10
26 14 0 25 -5 25 -11z m-70 -30 c0 -6 -4 -7 -10 -4 -5 3 -10 11 -10 16 0 6 5
7 10 4 6 -3 10 -11 10 -16z"/>
<path d="M4315 965 c0 -85 3 -147 7 -137 9 23 10 292 1 292 -5 0 -8 -70 -8
-155z"/>
<path d="M5701 1064 c0 -11 3 -14 6 -6 3 7 2 16 -1 19 -3 4 -6 -2 -5 -13z"/>
<path d="M5716 1003 c-6 -14 -5 -15 5 -6 7 7 10 15 7 18 -3 3 -9 -2 -12 -12z"/>
<path d="M2266 986 c4 -12 10 -22 14 -24 5 -2 16 -46 26 -98 10 -51 21 -94 26
-94 4 0 8 -28 8 -62 0 -34 3 -58 7 -55 11 12 3 114 -12 144 -7 15 -16 46 -19
68 -11 79 -18 105 -28 105 -6 0 -8 8 -6 18 3 12 0 19 -9 19 -9 0 -11 -7 -7
-21z"/>
<path d="M3396 965 c-3 -8 -1 -15 4 -15 6 0 10 7 10 15 0 8 -2 15 -4 15 -2 0
-6 -7 -10 -15z"/>
<path d="M5727 955 c3 -8 9 -12 14 -9 12 7 11 11 -5 17 -10 4 -13 1 -9 -8z"/>
<path d="M213 940 c-3 -11 -9 -20 -14 -20 -5 0 -6 -6 -3 -14 3 -8 1 -17 -5
-21 -6 -3 -11 0 -11 7 0 11 -2 11 -9 0 -4 -8 -7 -29 -5 -48 1 -18 -2 -36 -7
-40 -5 -3 -9 -20 -8 -37 0 -30 1 -31 10 -9 5 13 7 28 4 32 -3 5 -1 12 5 15 6
4 8 16 4 27 -3 12 -2 18 3 15 5 -3 19 21 31 54 12 32 19 59 16 59 -3 0 -8 -9
-11 -20z"/>
<path d="M3384 920 c0 -11 4 -20 8 -20 4 0 8 9 8 20 0 11 -4 20 -8 20 -4 0 -8
-9 -8 -20z"/>
<path d="M5747 898 c8 -47 14 -49 11 -5 -1 20 -6 37 -10 37 -4 0 -5 -15 -1
-32z"/>
<path d="M3380 881 c0 -5 5 -13 10 -16 6 -3 10 -2 10 4 0 5 -4 13 -10 16 -5 3
-10 2 -10 -4z"/>
<path d="M3380 840 c0 -5 5 -10 10 -10 6 0 10 5 10 10 0 6 -4 10 -10 10 -5 0
-10 -4 -10 -10z"/>
<path d="M5770 833 c0 -5 5 -15 10 -23 8 -12 10 -11 10 8 0 12 -4 22 -10 22
-5 0 -10 -3 -10 -7z"/>
<path d="M3378 793 c0 -10 0 -29 1 -41 1 -13 -3 -29 -9 -37 -7 -8 -7 -21 -1
-36 l9 -24 6 25 c9 41 12 130 4 130 -5 0 -9 -8 -10 -17z"/>
<path d="M4310 680 c0 -68 2 -121 5 -118 8 8 10 226 2 234 -4 4 -7 -48 -7
-116z"/>
<path d="M4721 770 c0 -14 4 -32 9 -40 9 -13 10 -13 9 0 -1 8 -5 26 -9 40 l-8
25 -1 -25z"/>
<path d="M5781 779 c0 -8 6 -24 14 -35 13 -17 14 -17 15 -1 0 9 -4 17 -9 17
-5 0 -12 8 -14 18 -4 13 -5 14 -6 1z"/>
<path d="M125 710 c8 -13 -26 -70 -37 -64 -7 4 -8 2 -4 -5 10 -15 36 4 36 26
0 7 7 16 15 19 19 8 20 31 0 31 -8 0 -12 -4 -10 -7z"/>
<path d="M5806 694 c9 -37 10 -39 17 -15 3 11 -2 26 -10 32 -12 11 -13 8 -7
-17z"/>
<path d="M4727 677 c3 -15 9 -27 14 -27 13 0 11 13 -5 35 -13 18 -14 18 -9 -8z"/>
<path d="M5827 653 c-10 -9 -9 -23 1 -23 5 0 9 7 9 15 0 17 -1 18 -10 8z"/>
<path d="M3368 625 c-3 -14 -1 -25 3 -25 5 0 9 11 9 25 0 14 -2 25 -4 25 -2 0
-6 -11 -8 -25z"/>
<path d="M2336 624 c-14 -37 -5 -60 41 -97 49 -40 69 -43 34 -6 -12 13 -21 19
-21 15 0 -4 -10 2 -22 14 -15 13 -22 32 -22 55 0 39 -1 42 -10 19z"/>
<path d="M75 609 c-4 -6 -5 -12 -2 -15 2 -3 7 2 10 11 7 17 1 20 -8 4z"/>
<path d="M4736 598 c-6 -19 -4 -48 4 -48 4 0 7 14 7 30 0 31 -5 39 -11 18z"/>
<path d="M47 580 c-3 -11 -1 -20 4 -20 5 0 9 9 9 20 0 11 -2 20 -4 20 -2 0 -6
-9 -9 -20z"/>
<path d="M5843 560 c6 -16 15 -30 20 -30 5 0 6 6 3 13 -3 6 -9 20 -12 30 -4 9
-10 17 -14 17 -5 0 -3 -13 3 -30z"/>
<path d="M3362 530 c0 -19 2 -27 5 -17 2 9 2 25 0 35 -3 9 -5 1 -5 -18z"/>
<path d="M5890 551 c0 -6 4 -13 10 -16 6 -3 7 1 4 9 -7 18 -14 21 -14 7z"/>
<path d="M41 534 c0 -11 3 -14 6 -6 3 7 2 16 -1 19 -3 4 -6 -2 -5 -13z"/>
<path d="M4313 515 c0 -22 2 -30 4 -17 2 12 2 30 0 40 -3 9 -5 -1 -4 -23z"/>
<path d="M4734 505 c9 -30 12 -32 14 -15 2 13 -3 29 -11 37 -13 13 -13 10 -3
-22z"/>
<path d="M30 494 c0 -9 -5 -12 -12 -8 -9 6 -9 3 0 -9 8 -9 11 -21 7 -26 -3 -6
-2 -18 2 -26 6 -9 9 3 10 35 0 28 -1 50 -3 50 -2 0 -4 -7 -4 -16z"/>
<path d="M3356 461 c-4 -7 -5 -15 -2 -18 9 -9 19 4 14 18 -4 11 -6 11 -12 0z"/>
<path d="M2460 450 c0 -5 5 -10 11 -10 5 0 7 5 4 10 -3 6 -8 10 -11 10 -2 0
-4 -4 -4 -10z"/>
<path d="M4730 440 c0 -5 5 -10 10 -10 6 0 10 5 10 10 0 6 -4 10 -10 10 -5 0
-10 -4 -10 -10z"/>
<path d="M5891 434 c0 -11 3 -14 6 -6 3 7 2 16 -1 19 -3 4 -6 -2 -5 -13z"/>
<path d="M4313 395 c0 -27 2 -38 4 -22 2 15 2 37 0 50 -2 12 -4 0 -4 -28z"/>
<path d="M2466 422 c-2 -4 -1 -14 4 -22 7 -11 9 -9 7 8 -1 24 -3 26 -11 14z"/>
<path d="M3351 404 c0 -11 3 -14 6 -6 3 7 2 16 -1 19 -3 4 -6 -2 -5 -13z"/>
<path d="M5896 393 c-6 -14 -5 -15 5 -6 7 7 10 15 7 18 -3 3 -9 -2 -12 -12z"/>
<path d="M2445 380 c-3 -5 -1 -10 4 -10 6 0 11 5 11 10 0 6 -2 10 -4 10 -3 0
-8 -4 -11 -10z"/>
<path d="M4745 375 c-3 -8 -8 -23 -11 -32 -4 -14 -3 -15 7 -6 7 7 13 22 14 33
2 24 -4 26 -10 5z"/>
<path d="M28 362 c-3 -11 0 -19 7 -19 7 0 10 8 7 19 -2 10 -6 18 -7 18 -1 0
-5 -8 -7 -18z"/>
<path d="M5908 374 c-4 -4 -3 -15 3 -26 5 -10 7 -24 3 -31 -5 -9 -4 -9 6 0 8
8 10 19 3 38 -4 14 -12 23 -15 19z"/>
<path d="M2370 362 c0 -11 37 -32 44 -25 3 4 6 11 6 17 0 6 -5 4 -10 -4 -5 -8
-10 -10 -10 -4 0 7 -7 14 -15 18 -8 3 -15 2 -15 -2z"/>
<path d="M3351 353 c0 -12 -4 -30 -7 -40 -5 -14 -4 -15 5 -7 7 6 11 24 8 40
-3 21 -4 23 -6 7z"/>
<path d="M2416 325 c-11 -8 -16 -16 -10 -17 5 0 14 -2 19 -2 6 -1 21 -8 35
-15 22 -11 22 -10 -5 14 -19 17 -23 24 -12 21 11 -3 15 -2 12 4 -8 13 -16 12
-39 -5z"/>
<path d="M4311 324 c0 -11 3 -14 6 -6 3 7 2 16 -1 19 -3 4 -6 -2 -5 -13z"/>
<path d="M13 313 c0 -9 4 -10 14 -2 16 14 16 16 0 16 -8 0 -14 -6 -14 -14z"/>
<path d="M5920 293 c0 -4 5 -15 10 -23 8 -13 10 -13 10 2 0 9 -4 20 -10 23 -5
3 -10 3 -10 -2z"/>
<path d="M4741 274 c0 -11 3 -14 6 -6 3 7 2 16 -1 19 -3 4 -6 -2 -5 -13z"/>
<path d="M2455 250 c-4 -14 -13 -28 -19 -32 -8 -6 -7 -8 1 -8 15 0 36 37 30
53 -2 7 -7 1 -12 -13z"/>
<path d="M2 236 c1 -14 5 -23 9 -20 7 4 0 44 -7 44 -2 0 -3 -11 -2 -24z"/>
<path d="M3342 220 c0 -14 2 -19 5 -12 2 6 2 18 0 25 -3 6 -5 1 -5 -13z"/>
<path d="M5944 209 c-3 -6 -1 -16 5 -22 8 -8 11 -5 11 11 0 24 -5 28 -16 11z"/>
<path d="M2435 190 c3 -5 8 -10 11 -10 2 0 4 5 4 10 0 6 -5 10 -11 10 -5 0 -7
-4 -4 -10z"/>
<path d="M2460 165 c0 -8 2 -15 4 -15 2 0 6 7 10 15 3 8 1 15 -4 15 -6 0 -10
-7 -10 -15z"/>
<path d="M4722 160 c0 -14 2 -19 5 -12 2 6 2 18 0 25 -3 6 -5 1 -5 -13z"/>
<path d="M5956 151 c-4 -7 -5 -15 -2 -18 9 -9 19 4 14 18 -4 11 -6 11 -12 0z"/>
<path d="M2431 146 c2 -2 15 -9 29 -15 24 -11 24 -11 6 3 -16 13 -49 24 -35
12z"/>
<path d="M2429 124 c6 -3 7 -14 1 -29 -5 -14 -6 -26 -2 -29 4 -3 8 3 9 12 1
10 3 23 5 31 2 7 -3 15 -10 17 -7 1 -8 0 -3 -2z"/>
<path d="M4301 94 c0 -11 3 -14 6 -6 3 7 2 16 -1 19 -3 4 -6 -2 -5 -13z"/>
<path d="M5961 64 c0 -11 3 -14 6 -6 3 7 2 16 -1 19 -3 4 -6 -2 -5 -13z"/>
<path d="M4298 63 c10 -4 10 -8 0 -21 -12 -15 -11 -16 4 -3 19 14 15 32 -5 30
-8 0 -8 -2 1 -6z"/>
<path d="M5981 54 c0 -11 3 -14 6 -6 3 7 2 16 -1 19 -3 4 -6 -2 -5 -13z"/>
<path d="M3388 53 c7 -3 16 -2 19 1 4 3 -2 6 -13 5 -11 0 -14 -3 -6 -6z"/>
<path d="M3438 43 c12 -2 30 -2 40 0 9 3 -1 5 -23 4 -22 0 -30 -2 -17 -4z"/>
<path d="M3593 33 c9 -2 23 -2 30 0 6 3 -1 5 -18 5 -16 0 -22 -2 -12 -5z"/>
<path d="M3705 20 c3 -5 11 -10 16 -10 6 0 7 5 4 10 -3 6 -11 10 -16 10 -6 0
-7 -4 -4 -10z"/>
<path d="M3770 16 c0 -2 7 -7 16 -10 8 -3 12 -2 9 4 -6 10 -25 14 -25 6z"/>
<path d="M3835 10 c-3 -6 1 -7 9 -4 18 7 21 14 7 14 -6 0 -13 -4 -16 -10z"/>
<path d="M3918 3 c7 -3 16 -2 19 1 4 3 -2 6 -13 5 -11 0 -14 -3 -6 -6z"/>
</g>
</svg>
